# xmcd
#
# Track frame offsets:
#	150
#	51982
#	73227
#	89764
#	103192
#	120329
#	138131
#	159883
#
# Disc length: 2442 seconds
#
# Revision: 0
# Processed by: cddbd v1.5.2PL0 Copyright (c) Steve Scherf et al.
# Submitted via: dBpowerAMP V4.0
#
DISCID=6b098808
DTITLE=The Floaters - The Floaters
DYEAR=1977
DGENRE=R&B
TTITLE0=Float On
TTITLE1=You Dont Have To Say You Love Me
TTITLE2=Got To Find a Way
TTITLE3=I Bet You Get The One You Love
TTITLE4=Everything Happens For a Reason
TTITLE5=Take One Step At a Time
TTITLE6=No Stronger Love
TTITLE7=I Am So Glad I Took My Time
EXTD=
EXTT0=
EXTT1=
EXTT2=
EXTT3=
EXTT4=
EXTT5=
EXTT6=
EXTT7=
PLAYORDER=
